<svg xmlns="http://www.w3.org/2000/svg" viewBox="0 0 800 400">
  <!-- Simplified world map in equirectangular projection -->
  <!-- Coordinates roughly: x = (lon + 180) * (800/360), y = (90 - lat) * (400/180) -->

  <!-- North America -->
  <path d="M 150,80 L 170,85 L 185,75 L 195,70 L 210,75 L 215,85 L 220,95 L 225,105 L 230,115 L 232,125 L 230,135 L 225,145 L 220,150 L 210,155 L 200,158 L 190,160 L 180,162 L 170,165 L 160,168 L 155,175 L 153,185 L 155,195 L 160,200 L 150,202 L 140,200 L 130,195 L 125,185 L 120,175 L 115,165 L 110,155 L 108,145 L 110,135 L 115,125 L 120,115 L 125,105 L 130,95 L 135,88 Z"/>

  <!-- South America -->
  <path d="M 185,210 L 195,215 L 200,225 L 205,240 L 208,255 L 210,270 L 208,285 L 205,295 L 200,305 L 192,315 L 185,320 L 178,318 L 172,310 L 168,298 L 165,285 L 163,270 L 165,255 L 168,240 L 172,228 L 178,218 Z"/>

  <!-- Europe -->
  <path d="M 390,95 L 405,92 L 420,95 L 435,100 L 445,108 L 450,115 L 448,122 L 442,128 L 432,132 L 420,135 L 408,133 L 395,130 L 385,125 L 380,118 L 382,110 L 387,102 Z"/>

  <!-- Africa -->
  <path d="M 385,145 L 400,143 L 415,145 L 430,150 L 442,158 L 450,168 L 455,180 L 458,195 L 460,210 L 458,225 L 455,238 L 450,250 L 442,260 L 432,268 L 420,273 L 408,275 L 395,273 L 385,268 L 378,258 L 372,245 L 368,230 L 365,215 L 363,200 L 365,185 L 368,170 L 372,158 L 378,150 Z"/>

  <!-- Asia -->
  <path d="M 455,85 L 475,80 L 495,78 L 515,80 L 535,85 L 555,92 L 575,100 L 592,110 L 605,122 L 612,135 L 615,148 L 612,160 L 605,170 L 595,178 L 582,183 L 568,185 L 555,183 L 542,178 L 530,170 L 520,160 L 512,148 L 507,135 L 505,122 L 507,110 L 512,100 L 520,92 L 530,87 L 542,83 Z"/>

  <!-- Australia -->
  <path d="M 595,245 L 610,243 L 625,245 L 638,250 L 648,258 L 653,268 L 655,278 L 652,287 L 645,295 L 635,300 L 622,303 L 608,302 L 595,298 L 585,290 L 578,280 L 575,268 L 577,258 L 583,250 Z"/>

  <!-- Antarctica (simplified outline at bottom) -->
  <path d="M 50,350 L 750,350 L 740,365 L 60,365 Z"/>
</svg>
